<svg width="16" height="21" viewBox="0 0 16 21" fill="none" xmlns="http://www.w3.org/2000/svg">
<path d="M2.99015 12.52C4.1389 12.52 5.07015 11.6156 5.07015 10.5C5.07015 9.3844 4.1389 8.48001 2.99015 8.48001C1.8414 8.48001 0.910156 9.3844 0.910156 10.5C0.910156 11.6156 1.8414 12.52 2.99015 12.52Z" stroke="black" stroke-width="1.5" stroke-linecap="round" stroke-linejoin="round"/>
<path d="M13.0698 5.50002C14.1854 5.50002 15.0898 4.59563 15.0898 3.48001C15.0898 2.3644 14.1854 1.46002 13.0698 1.46002C11.9542 1.46002 11.0498 2.3644 11.0498 3.48001C11.0498 4.59563 11.9542 5.50002 13.0698 5.50002Z" stroke="black" stroke-width="1.5" stroke-linecap="round" stroke-linejoin="round"/>
<path d="M13.0698 19.54C14.1854 19.54 15.0898 18.6356 15.0898 17.52C15.0898 16.4044 14.1854 15.5 13.0698 15.5C11.9542 15.5 11.0498 16.4044 11.0498 17.52C11.0498 18.6356 11.9542 19.54 13.0698 19.54Z" stroke="black" stroke-width="1.5" stroke-linecap="round" stroke-linejoin="round"/>
<path d="M5.23047 8.94002L10.8305 5.04001" stroke="black" stroke-width="1.5" stroke-linecap="round" stroke-linejoin="round"/>
<path d="M10.8305 15.96L5.23047 12.06" stroke="black" stroke-width="1.5" stroke-linecap="round" stroke-linejoin="round"/>
</svg>
